<?xml version="1.0" encoding="utf-8"?>
<!-- Generator: Adobe Illustrator 18.1.0, SVG Export Plug-In . SVG Version: 6.00 Build 0)  -->
<svg version="1.1" id="Layer_1" xmlns="http://www.w3.org/2000/svg" xmlns:xlink="http://www.w3.org/1999/xlink" x="0px" y="0px"
	 viewBox="0 0 850.4 850.4" enable-background="new 0 0 850.4 850.4" xml:space="preserve">
<polygon fill="#F4F6F9" points="94.6,739.2 94.6,739.2 141.9,785 189.2,739.2 189.2,739.2 236.5,785 283.8,739.2 283.8,739.2 
	331.1,785 378.4,739.2 378.4,739.2 425.7,785 473,739.2 473,739.2 520.3,785 567.6,739.2 567.6,739.2 614.9,785 662.1,739.2 
	662.1,739.2 709.4,785 756.7,739.2 756.7,739.2 804,785 850.4,740.1 850.4,707.4 804,752.3 756.7,706.5 756.7,706.5 709.4,752.3 
	662.1,706.5 662.1,706.5 614.9,752.3 567.6,706.5 567.6,706.5 520.3,752.3 473,706.5 473,706.5 425.7,752.3 378.4,706.5 
	378.4,706.5 331.1,752.3 283.8,706.5 283.8,706.5 236.5,752.3 189.2,706.5 189.2,706.5 141.9,752.3 94.6,706.5 94.6,706.5 
	47.3,752.3 0,706.5 0,739.2 47.3,785 "/>
<polygon fill="#F4F6F9" points="94.6,673.8 94.6,673.8 141.9,719.6 189.2,673.8 189.2,673.8 236.5,719.6 283.8,673.8 283.8,673.8 
	331.1,719.6 378.4,673.8 378.4,673.8 425.7,719.6 473,673.8 473,673.8 520.3,719.6 567.6,673.8 567.6,673.8 614.9,719.6 
	662.1,673.8 662.1,673.8 709.4,719.6 756.7,673.8 756.7,673.8 804,719.6 850.4,674.7 850.4,642 804,686.9 756.7,641.1 756.7,641.1 
	709.4,686.9 662.1,641.1 662.1,641.1 614.9,686.9 567.6,641.1 567.6,641.1 520.3,686.9 473,641.1 473,641.1 425.7,686.9 
	378.4,641.1 378.4,641.1 331.1,686.9 283.8,641.1 283.8,641.1 236.5,686.9 189.2,641.1 189.2,641.1 141.9,686.9 94.6,641.1 
	94.6,641.1 47.3,686.9 0,641.1 0,673.8 47.3,719.6 "/>
<polygon fill="#F4F6F9" points="94.6,608.4 94.6,608.4 141.9,654.2 189.2,608.4 189.2,608.4 236.5,654.2 283.8,608.4 283.8,608.4 
	331.1,654.2 378.4,608.4 378.4,608.4 425.7,654.2 473,608.4 473,608.4 520.3,654.2 567.6,608.4 567.6,608.4 614.9,654.2 
	662.1,608.4 662.1,608.4 709.4,654.2 756.7,608.4 756.7,608.4 804,654.2 850.4,609.3 850.4,576.6 804,621.5 756.7,575.7 
	756.7,575.7 709.4,621.5 662.1,575.7 662.1,575.7 614.9,621.5 567.6,575.7 567.6,575.7 520.3,621.5 473,575.7 473,575.7 
	425.7,621.5 378.4,575.7 378.4,575.7 331.1,621.5 283.8,575.7 283.8,575.7 236.5,621.5 189.2,575.7 189.2,575.7 141.9,621.5 
	94.6,575.7 94.6,575.7 47.3,621.5 0,575.7 0,608.4 47.3,654.2 "/>
<polygon fill="#F4F6F9" points="94.6,543 94.6,543 141.9,588.7 189.2,543 189.2,543 236.5,588.7 283.8,543 283.8,543 331.1,588.7 
	378.4,543 378.4,543 425.7,588.7 473,543 473,543 520.3,588.7 567.6,543 567.6,543 614.9,588.7 662.1,543 662.1,543 709.4,588.7 
	756.7,543 756.7,543 804,588.7 850.4,543.9 850.4,511.2 804,556.1 756.7,510.3 756.7,510.3 709.4,556.1 662.1,510.3 662.1,510.3 
	614.9,556.1 567.6,510.3 567.6,510.3 520.3,556.1 473,510.3 473,510.3 425.7,556.1 378.4,510.3 378.4,510.3 331.1,556.1 
	283.8,510.3 283.8,510.3 236.5,556.1 189.2,510.3 189.2,510.3 141.9,556.1 94.6,510.3 94.6,510.3 47.3,556.1 0,510.3 0,543 
	47.3,588.7 "/>
<polygon fill="#F4F6F9" points="94.6,477.6 94.6,477.5 141.9,523.3 189.2,477.6 189.2,477.5 236.5,523.3 283.8,477.6 283.8,477.5 
	331.1,523.3 378.4,477.6 378.4,477.5 425.7,523.3 473,477.6 473,477.5 520.3,523.3 567.6,477.6 567.6,477.5 614.9,523.3 
	662.1,477.6 662.1,477.5 709.4,523.3 756.7,477.6 756.7,477.5 804,523.3 850.4,478.5 850.4,445.8 804,490.7 756.7,444.9 
	756.7,444.9 709.4,490.7 662.1,444.9 662.1,444.9 614.9,490.7 567.6,444.9 567.6,444.9 520.3,490.7 473,444.9 473,444.9 
	425.7,490.7 378.4,444.9 378.4,444.9 331.1,490.7 283.8,444.9 283.8,444.9 236.5,490.7 189.2,444.9 189.2,444.9 141.9,490.7 
	94.6,444.9 94.6,444.9 47.3,490.7 0,444.9 0,477.5 47.3,523.3 "/>
<polygon fill="#F4F6F9" points="94.6,412.1 94.6,412.1 141.9,457.9 189.2,412.1 189.2,412.1 236.5,457.9 283.8,412.1 283.8,412.1 
	331.1,457.9 378.4,412.1 378.4,412.1 425.7,457.9 473,412.1 473,412.1 520.3,457.9 567.6,412.1 567.6,412.1 614.9,457.9 
	662.1,412.1 662.1,412.1 709.4,457.9 756.7,412.1 756.7,412.1 804,457.9 850.4,413 850.4,380.4 804,425.3 756.7,379.5 756.7,379.5 
	709.4,425.3 662.1,379.5 662.1,379.5 614.9,425.3 567.6,379.5 567.6,379.5 520.3,425.3 473,379.5 473,379.5 425.7,425.3 
	378.4,379.5 378.4,379.5 331.1,425.3 283.8,379.5 283.8,379.5 236.5,425.3 189.2,379.5 189.2,379.5 141.9,425.3 94.6,379.5 
	94.6,379.5 47.3,425.3 0,379.5 0,412.1 47.3,457.9 "/>
<polygon fill="#F4F6F9" points="94.6,346.7 94.6,346.7 141.9,392.5 189.2,346.7 189.2,346.7 236.5,392.5 283.8,346.7 283.8,346.7 
	331.1,392.5 378.4,346.7 378.4,346.7 425.7,392.5 473,346.7 473,346.7 520.3,392.5 567.6,346.7 567.6,346.7 614.9,392.5 
	662.1,346.7 662.1,346.7 709.4,392.5 756.7,346.7 756.7,346.7 804,392.5 850.4,347.6 850.4,315 804,359.8 756.7,314 756.7,314.1 
	709.4,359.8 662.1,314 662.1,314.1 614.9,359.8 567.6,314 567.6,314.1 520.3,359.8 473,314 473,314.1 425.7,359.8 378.4,314 
	378.4,314.1 331.1,359.8 283.8,314 283.8,314.1 236.5,359.8 189.2,314 189.2,314.1 141.9,359.8 94.6,314 94.6,314.1 47.3,359.8 
	0,314 0,346.7 47.3,392.5 "/>
<polygon fill="#F4F6F9" points="94.6,281.3 94.6,281.3 141.9,327.1 189.2,281.3 189.2,281.3 236.5,327.1 283.8,281.3 283.8,281.3 
	331.1,327.1 378.4,281.3 378.4,281.3 425.7,327.1 473,281.3 473,281.3 520.3,327.1 567.6,281.3 567.6,281.3 614.9,327.1 
	662.1,281.3 662.1,281.3 709.4,327.1 756.7,281.3 756.7,281.3 804,327.1 850.4,282.2 850.4,249.5 804,294.4 756.7,248.6 
	756.7,248.6 709.4,294.4 662.1,248.6 662.1,248.6 614.9,294.4 567.6,248.6 567.6,248.6 520.3,294.4 473,248.6 473,248.6 
	425.7,294.4 378.4,248.6 378.4,248.6 331.1,294.4 283.8,248.6 283.8,248.6 236.5,294.4 189.2,248.6 189.2,248.6 141.9,294.4 
	94.6,248.6 94.6,248.6 47.3,294.4 0,248.6 0,281.3 47.3,327.1 "/>
<polygon fill="#F4F6F9" points="94.6,215.9 94.6,215.9 141.9,261.7 189.2,215.9 189.2,215.9 236.5,261.7 283.8,215.9 283.8,215.9 
	331.1,261.7 378.4,215.9 378.4,215.9 425.7,261.7 473,215.9 473,215.9 520.3,261.7 567.6,215.9 567.6,215.9 614.9,261.7 
	662.1,215.9 662.1,215.9 709.4,261.7 756.7,215.9 756.7,215.9 804,261.7 850.4,216.8 850.4,184.1 804,229 756.7,183.2 756.7,183.2 
	709.4,229 662.1,183.2 662.1,183.2 614.9,229 567.6,183.2 567.6,183.2 520.3,229 473,183.2 473,183.2 425.7,229 378.4,183.2 
	378.4,183.2 331.1,229 283.8,183.2 283.8,183.2 236.5,229 189.2,183.2 189.2,183.2 141.9,229 94.6,183.2 94.6,183.2 47.3,229 
	0,183.2 0,215.9 47.3,261.7 "/>
<polygon fill="#F4F6F9" points="94.6,150.5 94.6,150.5 141.9,196.3 189.2,150.5 189.2,150.5 236.5,196.3 283.8,150.5 283.8,150.5 
	331.1,196.3 378.4,150.5 378.4,150.5 425.7,196.3 473,150.5 473,150.5 520.3,196.3 567.6,150.5 567.6,150.5 614.9,196.3 
	662.1,150.5 662.1,150.5 709.4,196.3 756.7,150.5 756.7,150.5 804,196.3 850.4,151.4 850.4,118.7 804,163.6 756.7,117.8 
	756.7,117.8 709.4,163.6 662.1,117.8 662.1,117.8 614.9,163.6 567.6,117.8 567.6,117.8 520.3,163.6 473,117.8 473,117.8 
	425.7,163.6 378.4,117.8 378.4,117.8 331.1,163.6 283.8,117.8 283.8,117.8 236.5,163.6 189.2,117.8 189.2,117.8 141.9,163.6 
	94.6,117.8 94.6,117.8 47.3,163.6 0,117.8 0,150.5 47.3,196.3 "/>
<polygon fill="#F4F6F9" points="94.6,85.1 94.6,85.1 141.9,130.9 189.2,85.1 189.2,85.1 236.5,130.9 283.8,85.1 283.8,85.1 
	331.1,130.9 378.4,85.1 378.4,85.1 425.7,130.9 473,85.1 473,85.1 520.3,130.9 567.6,85.1 567.6,85.1 614.9,130.9 662.1,85.1 
	662.1,85.1 709.4,130.9 756.7,85.1 756.7,85.1 804,130.9 850.4,86 850.4,53.3 804,98.2 756.7,52.4 756.7,52.4 709.4,98.2 
	662.1,52.4 662.1,52.4 614.9,98.2 567.6,52.4 567.6,52.4 520.3,98.2 473,52.4 473,52.4 425.7,98.2 378.4,52.4 378.4,52.4 
	331.1,98.2 283.8,52.4 283.8,52.4 236.5,98.2 189.2,52.4 189.2,52.4 141.9,98.2 94.6,52.4 94.6,52.4 47.3,98.2 0,52.4 0,85.1 
	47.3,130.9 "/>
</svg>
